<?xml version="1.0" encoding="utf-8"?>
<!-- Generator: Adobe Illustrator 22.0.1, SVG Export Plug-In . SVG Version: 6.00 Build 0)  -->
<svg version="1.1" id="LOGO" xmlns="http://www.w3.org/2000/svg" xmlns:xlink="http://www.w3.org/1999/xlink" x="0px" y="0px"
	 viewBox="0 0 345 171" style="enable-background:new 0 0 345 171;" xml:space="preserve">
<style type="text/css">
	.st0{fill:#60625F;}
	.st1{fill:#82C088;}
</style>
<g>
	<path id="Puc_Lift" class="st0" d="M3,171H0v-46h21c9.9,0,18,8.1,18,18s-8.1,18-18,18H3V171z M3,158h18c8.3,0,15-6.7,15-15
		s-6.7-15-15-15H3V158z M86,155v-30h-3v30c0,7.2-5.8,13-13,13s-13-5.8-13-13v-30h-3v30c0,8.8,7.2,16,16,16S86,163.8,86,155z
		 M141.3,164.3l-2.1-2.1c-3.8,3.8-8.8,5.9-14.1,5.9c-11,0-20-9-20-20s9-20,20-20c5.3,0,10.4,2.1,14.1,5.9l2.1-2.1
		c-4.3-4.3-10.1-6.7-16.3-6.7c-12.7,0-23,10.3-23,23s10.3,23,23,23C131.1,171,136.9,168.6,141.3,164.3z M223,168h-29v-43h-3v46h32
		V168z M241,125h-3v46h3V125z M263,161h28v-3h-28v-6h28v-3h-28v-21h28v-3h-31v46h3V161z M328,128h17v-3h-37v3h17v43h3V128z"/>
	<path id="P" class="st1" d="M176.7,0H127v106h8V84.5h41.7c23.3,0,42.3-19,42.3-42.3C219,19,200,0,176.7,0z M176.7,8
		c6.1,0,11.8,1.6,16.7,4.4l-24.2,24.2L140.7,8H176.7z M135,13.7l28.6,28.6L135,70.8V13.7z M176.7,76.5h-36.1l28.6-28.6l24.2,24.2
		C188.5,74.9,182.8,76.5,176.7,76.5z M200,67.4l-25.1-25.1L200,17.1c6.8,6.3,11,15.2,11,25.1C211,52.2,206.8,61.1,200,67.4z
		 M152.5,42.5c0,3-2.5,5.5-5.5,5.5s-5.5-2.5-5.5-5.5S144,37,147,37S152.5,39.5,152.5,42.5z"/>
</g>
</svg>